<?xml version="1.0" encoding="UTF-8"?>
<!-- Generator: visioncortex VTracer 0.6.3 -->
<svg version="1.1" xmlns="http://www.w3.org/2000/svg" width="1280" height="1280">
<path d="M0 0 C2.35 0.51 4.7 0.97 7.06 1.43 C55.33 10.81 104.73 26.49 145.53 54.54 C146.11 54.94 146.69 55.35 147.29 55.76 C154.45 60.7 161.32 65.87 167.99 71.45 C170.42 73.46 172.9 75.38 175.4 77.29 C178.7 79.85 181.64 82.51 184.53 85.54 C186.7 87.69 188.87 89.83 191.05 91.97 C194.34 95.39 197.43 98.95 200.53 102.54 C201.09 103.19 201.65 103.84 202.22 104.51 C230.61 137.6 249.66 177.73 258.4 220.42 C258.59 221.34 258.78 222.27 258.98 223.22 C262.36 240.89 262.9 258.67 262.84 276.61 C262.84 277.68 262.84 278.75 262.84 279.86 C262.79 296.28 262.17 312.31 259.53 328.54 C259.4 329.42 259.27 330.3 259.14 331.2 C252.7 374.85 233.3 416.09 203.53 448.54 C202.82 449.31 202.82 449.31 202.11 450.1 C190.42 462.76 176.47 473.03 161.53 481.54 C159.91 482.51 159.91 482.51 158.27 483.49 C122.21 504.41 73.14 511.96 32.45 501.97 C19.17 498.42 7.39 492.25 -2.47 482.54 C-2.47 481.88 -2.47 481.22 -2.47 480.54 C-3.46 480.21 -4.45 479.88 -5.47 479.54 C-12.02 471.73 -15.48 462.14 -18.47 452.54 C-19.12 453.33 -19.76 454.12 -20.42 454.93 C-37.3 475.39 -55.73 491.33 -81.47 499.54 C-82.55 499.89 -83.62 500.25 -84.72 500.61 C-115.14 509.68 -151.96 508.41 -180.26 493.42 C-189.23 488.18 -196.93 481.65 -204.47 474.54 C-205.1 473.98 -205.73 473.42 -206.37 472.84 C-216.11 463.77 -221.97 451.47 -227.47 439.54 C-228.29 437.77 -228.29 437.77 -229.13 435.96 C-248.46 391.14 -243.22 333.83 -228.47 288.54 C-228.03 287.08 -228.03 287.08 -227.59 285.58 C-217.69 253.6 -200.03 225.13 -176.47 201.54 C-175.87 200.93 -175.27 200.31 -174.66 199.68 C-165.48 190.32 -154.81 183.07 -143.47 176.54 C-142.9 176.21 -142.32 175.87 -141.73 175.52 C-121.29 163.58 -98.8 158.37 -75.22 158.36 C-74.07 158.34 -72.92 158.33 -71.73 158.32 C-48.54 158.28 -24.23 164.94 -7.22 181.36 C-0.56 188.32 4.49 195.82 8.53 204.54 C10.09 198.35 11.63 192.15 13.1 185.94 C13.35 184.85 13.61 183.77 13.88 182.65 C14.4 180.41 14.93 178.17 15.45 175.93 C15.71 174.86 15.96 173.79 16.22 172.69 C16.56 171.24 16.56 171.24 16.91 169.76 C17.53 167.54 17.53 167.54 18.53 166.54 C21.14 166.45 23.73 166.42 26.35 166.43 C27.17 166.43 27.99 166.43 28.83 166.43 C31.56 166.43 34.28 166.44 37 166.45 C38.88 166.45 40.76 166.45 42.65 166.45 C47.61 166.45 52.57 166.46 57.54 166.48 C62.6 166.49 67.66 166.49 72.72 166.5 C82.65 166.51 92.59 166.52 102.53 166.54 C102.06 169.37 101.6 172.2 101.13 175.02 C101 175.81 100.87 176.6 100.74 177.41 C99.54 184.65 98.11 191.83 96.6 199 C95.98 201.94 95.37 204.87 94.76 207.81 C94.45 209.29 94.14 210.77 93.83 212.26 C92.49 218.7 91.19 225.15 89.9 231.61 C89.7 232.61 89.5 233.6 89.3 234.63 C88.71 237.6 88.12 240.57 87.53 243.54 C83.29 264.9 78.98 286.24 74.38 307.51 C71.78 319.49 69.29 331.48 66.87 343.49 C66.52 345.2 66.18 346.91 65.83 348.62 C60.73 373.19 60.73 373.19 59.21 398.17 C59.21 399.25 59.21 400.33 59.21 401.44 C59.28 412.68 60.62 420.22 68.53 428.54 C76.34 434.92 88.06 434.14 97.53 433.54 C106.89 432.35 115.24 430.07 123.53 425.54 C124.41 425.07 125.29 424.61 126.19 424.12 C154.88 407.42 166.62 373.74 174.81 343.43 C175.99 338.67 176.84 333.87 177.65 329.04 C177.82 328.09 177.99 327.13 178.16 326.15 C179.94 315.84 180.66 305.55 181.09 295.11 C181.15 293.69 181.15 293.69 181.22 292.24 C183.28 244.2 174.05 195.73 144.79 156.59 C143.27 154.54 141.8 152.45 140.39 150.31 C137.8 146.47 134.57 143.53 131.21 140.36 C129.53 138.54 129.53 138.54 129.53 136.54 C128.87 136.54 128.21 136.54 127.53 136.54 C125.82 134.92 124.16 133.24 122.53 131.54 C104.97 114.51 84.83 102.4 62.53 92.54 C61.73 92.19 60.93 91.83 60.1 91.47 C21.89 74.78 -21.09 69.72 -62.47 70.54 C-63.25 70.56 -64.03 70.57 -64.83 70.58 C-104.87 71.38 -145.77 80.3 -181.6 98.48 C-182.28 98.83 -182.96 99.17 -183.66 99.52 C-189.09 102.29 -194.33 105.28 -199.47 108.54 C-201.09 109.54 -201.09 109.54 -202.73 110.56 C-213.5 117.29 -223.67 124.71 -232.98 133.36 C-234.47 134.54 -234.47 134.54 -236.47 134.54 C-236.73 135.14 -236.99 135.74 -237.25 136.35 C-238.57 138.72 -239.86 139.93 -241.97 141.61 C-244.41 143.55 -245.7 144.88 -247.47 147.54 C-248.13 147.54 -248.79 147.54 -249.47 147.54 C-249.8 148.34 -249.8 148.34 -250.13 149.15 C-251.98 152.45 -254.47 155.11 -256.97 157.92 C-266.85 169.26 -275.07 181.47 -282.47 194.54 C-282.84 195.2 -283.21 195.85 -283.59 196.52 C-292.67 212.72 -300.11 229.76 -305.47 247.54 C-305.82 248.69 -306.16 249.83 -306.52 251.01 C-307.54 254.51 -308.52 258.02 -309.47 261.54 C-309.8 262.74 -310.13 263.94 -310.47 265.17 C-312.52 272.97 -314.17 280.8 -315.6 288.73 C-315.76 289.59 -315.91 290.45 -316.08 291.33 C-319.21 309.46 -319.8 327.59 -319.73 345.96 C-319.72 349.61 -319.73 353.26 -319.75 356.91 C-319.76 374.93 -318.89 392.55 -315.16 410.23 C-314.94 411.28 -314.73 412.33 -314.51 413.41 C-312.63 422.28 -310.26 430.92 -307.47 439.54 C-307.18 440.52 -306.89 441.5 -306.59 442.51 C-296.66 474.52 -278.59 503.46 -255.47 527.54 C-254.78 528.27 -254.78 528.27 -254.08 529.01 C-247.92 535.42 -241.58 541.21 -234.47 546.54 C-233.88 547 -233.28 547.47 -232.67 547.94 C-167.69 598.11 -81.03 604.3 -2.23 594.22 C19.4 591.35 40.66 586.94 61.53 580.54 C62.62 580.23 63.71 579.91 64.83 579.59 C71.31 577.68 77.51 575.43 83.71 572.75 C86.21 571.68 88.73 570.7 91.28 569.73 C96.73 567.59 101.9 564.9 107.08 562.19 C112.21 559.54 112.21 559.54 115.53 559.54 C115.78 560.52 115.78 560.52 116.03 561.51 C116.8 564.5 117.57 567.49 118.34 570.48 C118.6 571.5 118.86 572.52 119.13 573.58 C120.5 578.87 122 584.06 123.78 589.24 C125.26 593.82 126.4 598.5 127.59 603.17 C128.1 605.16 128.61 607.15 129.12 609.15 C129.36 610.08 129.6 611.01 129.84 611.97 C130.43 614.19 131.13 616.34 131.88 618.52 C132.53 621.54 132.53 621.54 131.61 623.63 C129.62 625.64 127.62 627.63 125.53 629.54 C124.32 630.69 124.32 630.69 123.09 631.85 C114.78 639.24 105.4 644.69 95.79 650.23 C93.9 651.33 92.02 652.45 90.14 653.58 C82.81 657.97 75.23 661.78 67.57 665.54 C65.6 666.51 63.64 667.49 61.69 668.48 C53.32 672.7 44.89 676.79 36.41 680.78 C31.57 683.07 26.77 685.43 21.99 687.86 C13.7 692.04 5.21 695.75 -3.29 699.48 C-26.41 709.36 -26.41 709.36 -48.47 721.36 C-49.73 722.12 -49.73 722.12 -51.02 722.91 C-56.91 726.52 -62.71 730.27 -68.49 734.05 C-92.35 749.57 -117.02 764.24 -142.63 776.65 C-145.2 777.9 -147.75 779.19 -150.3 780.48 C-159.2 784.97 -168.2 789.25 -177.22 793.48 C-179.31 794.47 -181.4 795.46 -183.48 796.46 C-190.23 799.67 -197.04 802.63 -204 805.35 C-207.95 806.9 -211.78 808.59 -215.6 810.42 C-223.68 814.2 -232.01 817.29 -240.38 820.39 C-243.61 821.6 -246.83 822.82 -250.05 824.04 C-284.66 837.09 -320.19 848.52 -356.41 856.12 C-363.57 857.67 -370.32 860.17 -377.17 862.71 C-394.92 869.18 -412.63 874.51 -431.47 876.54 C-433.32 876.76 -433.32 876.76 -435.21 876.99 C-464.44 879.92 -495.33 872.02 -519.71 855.72 C-520.89 854.93 -522.08 854.16 -523.29 853.41 C-523.88 853.03 -524.47 852.66 -525.07 852.27 C-525.59 851.95 -526.11 851.63 -526.65 851.29 C-530.42 848.35 -533.21 846.15 -534.01 841.29 C-533.96 840.1 -533.92 838.91 -533.87 837.68 C-533.85 837.03 -533.83 836.38 -533.8 835.71 C-533.73 833.65 -533.61 831.6 -533.47 829.54 C-533.39 828.28 -533.32 827.01 -533.24 825.7 C-532.95 821.77 -532.6 817.84 -532.22 813.92 C-532.16 813.21 -532.09 812.51 -532.02 811.78 C-530.63 796.97 -528.76 782.24 -526.47 767.54 C-526.21 765.86 -526.21 765.86 -525.95 764.15 C-521.03 732.8 -514.34 698.68 -499.77 670.22 C-495.62 661.98 -494.09 654.3 -493.15 645.17 C-492.74 641.2 -492.22 637.24 -491.71 633.27 C-491.61 632.5 -491.51 631.73 -491.4 630.94 C-490.28 622.59 -488.17 614.75 -485.3 606.84 C-484.42 604.4 -483.61 601.94 -482.8 599.48 C-477.44 583.51 -470 568.57 -462.47 553.54 C-463.26 552.92 -464.05 552.3 -464.86 551.66 C-467.06 549.88 -468.84 548.19 -470.66 546.04 C-471.15 545.48 -471.64 544.91 -472.14 544.33 C-475.92 539.27 -476.26 534.71 -475.47 528.54 C-474.75 526.63 -473.98 524.73 -473.16 522.86 C-471.54 519.25 -471.54 519.25 -472.29 515.61 C-473.21 514.48 -474.16 513.37 -475.14 512.28 C-477.6 509.07 -477.86 505.49 -477.47 501.54 C-476.59 499.32 -475.57 497.39 -474.29 495.37 C-473.31 493.56 -473.31 493.56 -473.59 491.49 C-474.76 488.9 -476.11 488.18 -478.54 486.73 C-482.6 484.2 -485.96 481.41 -489.36 478.06 C-492.2 476.02 -495.1 475.37 -498.47 474.54 C-496.46 457.98 -489.67 443.92 -481.47 429.54 C-486.29 427.83 -491.1 426.34 -496.07 425.15 C-497.03 424.92 -498 424.68 -499 424.44 C-500.98 423.97 -502.96 423.51 -504.95 423.06 C-516.82 420.14 -525.07 413.8 -531.46 403.41 C-534.95 396.98 -534.21 387.9 -533.01 380.84 C-531.34 375.22 -528.16 371.02 -524.47 366.54 C-523.96 365.81 -523.44 365.07 -522.91 364.31 C-522.44 363.73 -521.96 363.15 -521.47 362.54 C-520.81 362.54 -520.15 362.54 -519.47 362.54 C-519.26 362.01 -519.05 361.48 -518.83 360.93 C-516.96 357.63 -514.39 355.08 -511.79 352.36 C-507.47 347.79 -503.46 343.16 -499.78 338.06 C-499.35 337.56 -498.92 337.06 -498.47 336.54 C-497.81 336.54 -497.15 336.54 -496.47 336.54 C-496.25 336 -496.03 335.46 -495.8 334.9 C-494.05 331.79 -491.72 329.37 -489.29 326.79 C-488.28 325.72 -487.28 324.65 -486.29 323.57 C-485.8 323.05 -485.32 322.53 -484.82 322 C-482.57 319.57 -480.39 317.09 -478.28 314.54 C-476.47 312.54 -476.47 312.54 -474.43 310.94 C-470.45 307.49 -468.35 304.35 -467.75 299.11 C-467.39 293.61 -467.47 288.11 -467.54 282.61 C-467.53 280.62 -467.52 278.64 -467.5 276.65 C-467.47 272.74 -467.46 268.83 -467.47 264.91 C-467.48 258.04 -467.4 251.17 -467.22 244.29 C-467.22 243.29 -467.22 242.29 -467.22 241.26 C-467.05 234.83 -465.59 230.53 -461.47 225.54 C-456.59 221.11 -451.81 220.79 -445.47 220.54 C-445.8 219.88 -446.13 219.22 -446.47 218.54 C-446.57 216.62 -446.6 214.69 -446.61 212.76 C-446.61 211.59 -446.61 210.42 -446.61 209.21 C-446.61 207.98 -446.6 206.75 -446.6 205.48 C-446.6 204.28 -446.61 203.07 -446.61 201.83 C-446.59 179.97 -437.35 164.37 -422.47 148.54 C-421.81 148.54 -421.15 148.54 -420.47 148.54 C-420.24 147.98 -420.01 147.42 -419.77 146.84 C-418.15 143.98 -416.15 142.07 -413.79 139.79 C-401.63 127.85 -393.12 115.53 -387.6 99.36 C-378.47 72.64 -364.96 47.4 -339.47 33.54 C-338.67 33.1 -337.86 32.65 -337.03 32.2 C-318.72 22.13 -299.62 13.24 -279.57 7.18 C-278.03 6.71 -276.5 6.24 -274.96 5.76 C-238.81 -5.5 -202.13 -10.77 -164.47 -13.32 C-162.69 -13.44 -160.91 -13.57 -159.12 -13.69 C-106.52 -17.33 -51.38 -11.24 0 0 Z M-117.47 255.54 C-120.04 259.09 -122.29 262.75 -124.47 266.54 C-125.11 267.63 -125.74 268.71 -126.4 269.83 C-148.13 308.02 -156.19 359.86 -145.47 402.54 C-141.91 414.46 -134.32 425.73 -123.18 431.79 C-120.96 432.8 -118.76 433.71 -116.47 434.54 C-115.14 435.08 -115.14 435.08 -113.79 435.62 C-99.71 439.54 -84.27 436.43 -71.46 430.04 C-45.05 414.4 -30.44 383.8 -22.82 355.1 C-21.25 348.94 -19.83 342.75 -18.47 336.54 C-18.32 335.83 -18.16 335.12 -18 334.38 C-12.06 307 -7.49 270.95 -22.11 245.72 C-29.41 234.74 -37.67 229.76 -50.41 226.79 C-77.84 221.51 -100.41 234.5 -117.47 255.54 Z " fill="#000000" transform="translate(775.47265625,208.4560546875)"/>
</svg>
